<svg xmlns="http://www.w3.org/2000/svg" width="17.5" height="17.5" viewBox="0 0 17.5 17.5">
  <path id="phone-book" d="M17.5,2.939A1.711,1.711,0,0,0,15.791,1.23H14.9A2.053,2.053,0,0,0,13.022,0h-9.6A2.053,2.053,0,0,0,1.367,2.051V3.315H0V4.683H1.367V8.1H0V9.468H1.367v3.418H0v1.367H1.367v1.2A2.053,2.053,0,0,0,3.418,17.5h9.6a2.054,2.054,0,0,0,1.933-1.367h.835A1.711,1.711,0,0,0,17.5,14.424V11.963a1.7,1.7,0,0,0-.343-1.025A1.7,1.7,0,0,0,17.5,9.912V7.451a1.7,1.7,0,0,0-.343-1.025A1.7,1.7,0,0,0,17.5,5.4Zm-1.367,0V5.4a.342.342,0,0,1-.342.342h-.718V2.6h.718A.342.342,0,0,1,16.133,2.939Zm0,4.512V9.912a.342.342,0,0,1-.342.342h-.718V7.109h.718A.342.342,0,0,1,16.133,7.451Zm-2.427,8a.684.684,0,0,1-.684.684h-9.6a.684.684,0,0,1-.684-.684v-1.2h.308v0l.034,0a.684.684,0,0,0,0-1.367l-.034,0v0H2.734V9.468h.308v0l.034,0a.684.684,0,1,0,0-1.367l-.034,0v0H2.734V4.683h.308v0l.034,0a.684.684,0,1,0,0-1.367l-.034,0v0H2.734V2.051a.684.684,0,0,1,.684-.684h9.6a.684.684,0,0,1,.684.684Zm2.427-1.025a.342.342,0,0,1-.342.342h-.718V11.621h.718a.342.342,0,0,1,.342.342ZM10.138,9.081l2,2-.777.78a1.086,1.086,0,0,1-.786.342,1.413,1.413,0,0,1-.538-.116A6.913,6.913,0,0,1,7.178,10.2,6.194,6.194,0,0,1,5.286,7.361a1.243,1.243,0,0,1,.226-1.324l.78-.774L8.237,7.22l-1,1.007a10.18,10.18,0,0,0,.906,1.01,8.411,8.411,0,0,0,.965.85Z" fill="#fff"/>
</svg>
